<?xml version="1.0" encoding="utf-8"?>
<!-- Generator: Adobe Illustrator 24.1.3, SVG Export Plug-In . SVG Version: 6.00 Build 0)  -->
<svg version="1.1" id="Capa_1" xmlns="http://www.w3.org/2000/svg" xmlns:xlink="http://www.w3.org/1999/xlink" x="0px" y="0px"
	 viewBox="0 0 512 512" style="enable-background:new 0 0 512 512;" xml:space="preserve">
<style type="text/css">
	.st0{fill:#FFFFFF;}
</style>
<path class="st0" d="M299,504.9H196.6c-11.4,0-20.6-9.2-20.6-20.6V26.6c0-11.4,9.2-20.6,20.6-20.6H299c11.4,0,20.6,9.2,20.6,20.6
	v457.6C319.6,495.7,310.4,504.9,299,504.9z"/>
<path class="st0" d="M463.2,504.9H360.7c-11.4,0-20.6-9.2-20.6-20.6V179.5c0-11.4,9.2-20.6,20.6-20.6h102.4
	c11.4,0,20.6,9.2,20.6,20.6v304.8C483.8,495.7,474.6,504.9,463.2,504.9z"/>
<path class="st0" d="M134.8,504.9H32.4c-11.4,0-20.6-9.2-20.6-20.6v-179c0-11.4,9.2-20.6,20.6-20.6h102.4c11.4,0,20.6,9.2,20.6,20.6
	v179C155.4,495.7,146.2,504.9,134.8,504.9z"/>
</svg>
