<?xml version="1.0" encoding="utf-8"?>
<!-- Generator: Adobe Illustrator 24.1.2, SVG Export Plug-In . SVG Version: 6.00 Build 0)  -->
<svg version="1.1"
	 id="svg2" inkscape:version="0.48.0 r9654" sodipodi:docname="sigil.svg" xmlns:cc="http://creativecommons.org/ns#" xmlns:dc="http://purl.org/dc/elements/1.1/" xmlns:inkscape="http://www.inkscape.org/namespaces/inkscape" xmlns:rdf="http://www.w3.org/1999/02/22-rdf-syntax-ns#" xmlns:sodipodi="http://sodipodi.sourceforge.net/DTD/sodipodi-0.dtd" xmlns:svg="http://www.w3.org/2000/svg"
	 xmlns="http://www.w3.org/2000/svg" xmlns:xlink="http://www.w3.org/1999/xlink" x="0px" y="0px" viewBox="0 0 2000 2000"
	 style="enable-background:new 0 0 2000 2000;" xml:space="preserve">
<sodipodi:namedview  bordercolor="#666666" borderopacity="1.0" fit-margin-bottom="0" fit-margin-left="0" fit-margin-right="0" fit-margin-top="0" id="base" inkscape:current-layer="layer1" inkscape:cx="1000" inkscape:cy="1000" inkscape:document-units="px" inkscape:object-nodes="false" inkscape:object-paths="false" inkscape:pageopacity="0.0" inkscape:pageshadow="2" inkscape:window-height="1138" inkscape:window-maximized="1" inkscape:window-width="1920" inkscape:window-x="-8" inkscape:window-y="-8" inkscape:zoom="0.4595" pagecolor="#ffffff" showgrid="false">
	</sodipodi:namedview>
<g id="layer1" transform="translate(-51.40625,1137.5937)" inkscape:groupmode="layer" inkscape:label="Layer 1">
	<path id="path3763" inkscape:connector-curvature="0" d="M1051.4-1137.6c-551.7,0-1000,448.3-1000,1000s448.3,1000,1000,1000
		s1000-448.3,1000-1000S1603.1-1137.6,1051.4-1137.6z M1050.6-1045.5c0.3,0,0.5,0,0.8,0c3.2,0,6.4,0.1,9.7,0.1l236.3,392.6
		l-42.5,116.6L1050.6-1045.5L1050.6-1045.5z M991.6-1043.5L765-478.4l-104.5,1.1l321.6-565.5
		C985.2-1043.1,988.4-1043.3,991.6-1043.5L991.6-1043.5z M1116-1043.2c348.9,24.5,643,245.5,772.5,553.3l-436.7,4.5l-103.7-172.3
		l26.5-72.6h0.1c20.1-48.3,42.4-75.6,59.5-87.3c17.1-11.6,25.8-10.1,34.6-3.7s18.7,22.9,20.6,49.2c1.8,24.3-3,56-18.2,91.5
		c-32.2,7.1-56.6,36-56.6,70.2c0,39.4,32.4,71.7,71.8,71.7s71.8-32.3,71.8-71.7c0-27.9-16.3-52.3-39.8-64.1
		c14-36.8,19.1-71.1,16.9-100.9c-2.7-35.7-15.6-65.9-39.7-83.2c-12.1-8.6-26.8-12.7-42-12.2c-15.2,0.5-31,5.6-45.3,15.2
		c-28.5,19.3-54,54.1-76.3,107.6l-0.2,0.5l-0.2,0.6l-14.1,38.6L1116-1043.2L1116-1043.2z M925.7-1036.8L607.2-476.7l-400,4.1
		C325.5-771.1,597.4-991.5,925.7-1036.8z M1021.6-994.6l205.1,511.5l-411.8,4.2L1021.6-994.6z M1486.4-636.3
		c14.5,0,25.8,11.3,25.8,25.8c0,14.5-11.3,25.7-25.8,25.7s-25.8-11.2-25.8-25.7S1471.9-636.3,1486.4-636.3z M1327.8-602.3
		l70.7,117.4l-113.9,1.2L1327.8-602.3z M1905.9-445.7c34.6,96.2,53.5,199.9,53.5,308.1c0,76-9.4,149.8-26.9,220.3
		c-3.8-0.4-7.5-0.7-11.2-0.8c-38.9-1.1-72.9,13.9-100.8,36.9c-1.1,0.9-2.1,1.8-3.2,2.7L1705-65l43.2-31.1l57.8-41.5l-71.1-0.2
		L1661-138l-63.5-105.5L1905.9-445.7L1905.9-445.7z M1818.3-443.3L1573.7-283l-94.4-156.8L1818.3-443.3z M1426-439.2l109.2,181.4
		l-133.5,87.5l-107.4-267.6L1426-439.2z M1218.6-437l-108.5,297.7l-411.4-1.1l-15.4-10.4l113-282L1218.6-437z M746.5-432.2
		L644.2-176.9l-111.9-75L634.1-431L746.5-432.2z M580.9-430.4l-87,152.8L270.4-427.3L580.9-430.4z M190.1-425.6l281,188.2
		l-54.8,96.3l-83.3-0.2c-10.3-28.1-37.4-48.4-68.9-48.4c-40.2,0-73.2,33-73.2,73.2s33,73.4,73.2,73.4c32.8,0,60.9-22.1,70.1-52.1
		l56,0.2l-176,309.6c-45.5-108.2-70.7-227.2-70.7-352.1C143.5-238.3,159.9-335.1,190.1-425.6L190.1-425.6z M1257-407.8l105.6,263.4
		l-8.6,5.7l-194.8-0.5L1257-407.8L1257-407.8z M1559-218.2l48.2,80.2l-170-0.5L1559-218.2L1559-218.2z M509.5-211.7l106.2,71.1
		l-146.5-0.4L509.5-211.7z M264.1-143.7c15.3,0,27.3,11.8,27.3,27.1c0,15.3-12,27.3-27.3,27.3s-27.1-12-27.1-27.3
		C236.9-131.9,248.8-143.7,264.1-143.7z M443-95l168.1,0.4L483.6,223.6c-67.3-12.1-143.6-11.4-226.6,8.5L443-95L443-95z M660.7-94.4
		h24l297.5,199.3L676.5,305.3c-11-8.1-22.6-15.9-35-23.3c-32.8-19.6-70.5-36.2-112.5-47.9L660.7-94.4L660.7-94.4z M767.7-94.3
		l325.6,0.9l-60.1,164.8l-9.2,6L767.7-94.3L767.7-94.3z M1142.3-93.3l141.7,0.4L1097.6,29.2L1142.3-93.3z M1367.5-92.7h15.7
		l63,157.2l-213.1,153.1L1069,107.7l2.2-6.2C1071.3,101.5,1367.5-92.7,1367.5-92.7z M1432.9-92.5l202,0.5l8.7,14.5l-159,114.3
		L1432.9-92.5L1432.9-92.5z M1667.5-38l116.2,193c-21.7,24.4-42,52-63.9,79.1c-8.2,9.7-7,24.2,2.7,32.4s24.2,7,32.4-2.7
		c0.2-0.3,0.4-0.5,0.6-0.8c34.8-43.2,64.3-84.2,94.1-108.7c22.6-18.6,43.2-28.8,70.4-27c-46,151.3-130.3,285.8-241.7,392.2
		l-176-438.8L1667.5-38L1667.5-38z M1463.9,108.4l144.6,360.5l-334.5-224L1463.9,108.4z M1006.9,143.6L887.5,471.1l-25.6,70.2
		l60.6-43.6l311.6-224.1l410.6,275c0.3,0.2,0.7,0.4,1.1,0.6c-159.2,137.9-366.9,221.2-594.4,221.2c-241.4,0-460.6-94-623.2-247.3
		l245.3-160.8c19.7,17.6,35.6,35.9,47.3,53.6c16.2,24.5,23.2,47.2,23.8,63.5c-0.3,0-0.5,0-0.8,0c-40.3,0-73.4,36.1-73.4,80.1
		s33.1,80.2,73.4,80.2c40.3,0,73.4-36.2,73.4-80.2c0-25.2-10.9-47.8-27.8-62.5c6.2-33.6-6.5-70.4-30.2-106.3
		c-12.2-18.4-27.6-36.8-46-54.4L1006.9,143.6z M1052.8,152.2l140.6,94.1l-237,170.5L1052.8,152.2z M393.3,261.3
		c25.4,0,49.7,2.1,72.8,5.8l-83.9,209.4C328.8,418.3,283,353,246.2,282.4C298.5,267.7,347.8,261.2,393.3,261.3L393.3,261.3z
		 M511.9,276.8c39.8,10.7,75.3,26.4,106,44.7c5.9,3.6,11.7,7.2,17.3,10.9L437.7,461.8L511.9,276.8z M743.8,527.5
		c16.5,0,29.4,13.9,29.4,31.9c0,18-12.9,32.1-29.4,32.1c-16.5,0-29.3-14.1-29.3-32.1S727.3,527.5,743.8,527.5z"/>
</g>
</svg>
